<svg width="41" height="30" viewBox="0 0 41 30" fill="none" xmlns="http://www.w3.org/2000/svg">
<path d="M32.4429 2.77539L40.1483 26.471C40.5685 27.7633 39.6052 29.0895 38.2463 29.0895H32.1199C30.8128 29.0895 29.6561 28.2432 29.2605 26.9974L21.9043 3.82944C21.4129 2.28185 22.568 0.703125 24.1917 0.703125H29.5899C30.8893 0.703125 32.041 1.53967 32.4429 2.77539Z" fill="#7239EA"/>
<path d="M23.8599 20.134L18.4161 2.69672C18.0458 1.51074 16.9476 0.703125 15.7052 0.703125C14.4954 0.703125 13.4978 1.65119 13.4362 2.85944L12.7875 15.5903C12.741 16.5022 12.851 17.4154 13.1127 18.2902L15.9165 27.6627C16.1698 28.5094 16.9488 29.0895 17.8326 29.0895H20.6834C21.5539 29.0895 22.3244 28.5264 22.5888 27.697L23.849 23.7447C24.2233 22.5708 24.2271 21.3102 23.8599 20.134Z" fill="#E9E9E9"/>
<path d="M23.8599 20.134L18.4161 2.69672C18.0458 1.51074 16.9476 0.703125 15.7052 0.703125C14.4954 0.703125 13.4978 1.65119 13.4362 2.85944L12.7875 15.5903C12.741 16.5022 12.851 17.4154 13.1127 18.2902L15.9165 27.6627C16.1698 28.5094 16.9488 29.0895 17.8326 29.0895H20.6834C21.5539 29.0895 22.3244 28.5264 22.5888 27.697L23.849 23.7447C24.2233 22.5708 24.2271 21.3102 23.8599 20.134Z" stroke="black"/>
<path d="M10.914 0.703125H16.5935C18.2119 0.703125 19.3663 2.27205 18.8849 3.81709L11.6023 27.1892C11.2117 28.4428 10.0512 29.2967 8.73811 29.2967H2.67504C1.33157 29.2967 0.370178 27.9985 0.761985 26.7134L8.04439 2.82821C8.42931 1.56573 9.59412 0.703125 10.914 0.703125Z" fill="#7239EA"/>
</svg>